# xmcd CD database file
#
# Track frame offsets:
#	150
#	20214
#	38439
#	58047
#	71397
#	89772
#	107106
#	131706
#	143160
#	162510
#	177951
#	185668
#	203610
#	217224
#	239331
#
# Disc length: 3515 seconds
#
# Revision: 1
# Processed by: cddbd v1.5.2PL0 Copyright (c) Steve Scherf et al.
# Submitted via: CDex 1.51
#
DISCID=e40db90f
DTITLE=Blues Cruisers - Free Cruisin'
DYEAR=1997
DGENRE=Blues
TTITLE0=Play That Funky Music
TTITLE1=Evil Woman
TTITLE2=I Am The Mister
TTITLE3=When Something Is Wrong Witch My Baby
TTITLE4=Sweet Kind Of Woman
TTITLE5=Don't Try To Kill Mo Out
TTITLE6=No Sympathy
TTITLE7=Medicine Woman
TTITLE8=How Long
TTITLE9=Fanny Mea
TTITLE10=Vera Cruise
TTITLE11=It's A Man's World
TTITLE12=Nutbush City Limits
TTITLE13=All Right Now
TTITLE14=Summertime
EXTD=YEAR: 1997
EXTT0=
EXTT1=
EXTT2=
EXTT3=
EXTT4=
EXTT5=
EXTT6=
EXTT7=
EXTT8=
EXTT9=
EXTT10=
EXTT11=
EXTT12=
EXTT13=
EXTT14=
PLAYORDER=
